<svg width="360" height="800" viewBox="0 0 360 800" fill="none" xmlns="http://www.w3.org/2000/svg">
<rect width="360" height="800" fill="white"/>
<rect width="360" height="54.2575" fill="#002B5B"/>
<path d="M74.8704 37.3407C74.0304 37.3407 73.2744 37.1967 72.6024 36.9087C71.9304 36.6087 71.4024 36.1887 71.0184 35.6487C70.6344 35.1087 70.4424 34.4787 70.4424 33.7587H72.6384C72.6864 34.2987 72.8964 34.7427 73.2684 35.0907C73.6524 35.4387 74.1864 35.6127 74.8704 35.6127C75.5784 35.6127 76.1304 35.4447 76.5264 35.1087C76.9224 34.7607 77.1204 34.3167 77.1204 33.7767C77.1204 33.3567 76.9944 33.0147 76.7424 32.7507C76.5024 32.4867 76.1964 32.2827 75.8244 32.1387C75.4644 31.9947 74.9604 31.8387 74.3124 31.6707C73.4964 31.4547 72.8304 31.2387 72.3144 31.0227C71.8104 30.7947 71.3784 30.4467 71.0184 29.9787C70.6584 29.5107 70.4784 28.8867 70.4784 28.1067C70.4784 27.3867 70.6584 26.7567 71.0184 26.2167C71.3784 25.6767 71.8824 25.2627 72.5304 24.9747C73.1784 24.6867 73.9284 24.5427 74.7804 24.5427C75.9924 24.5427 76.9824 24.8487 77.7504 25.4607C78.5304 26.0607 78.9624 26.8887 79.0464 27.9447H76.7784C76.7424 27.4887 76.5264 27.0987 76.1304 26.7747C75.7344 26.4507 75.2124 26.2887 74.5644 26.2887C73.9764 26.2887 73.4964 26.4387 73.1244 26.7387C72.7524 27.0387 72.5664 27.4707 72.5664 28.0347C72.5664 28.4187 72.6804 28.7367 72.9084 28.9887C73.1484 29.2287 73.4484 29.4207 73.8084 29.5647C74.1684 29.7087 74.6604 29.8647 75.2844 30.0327C76.1124 30.2607 76.7844 30.4887 77.3004 30.7167C77.8284 30.9447 78.2724 31.2987 78.6324 31.7787C79.0044 32.2467 79.1904 32.8767 79.1904 33.6687C79.1904 34.3047 79.0164 34.9047 78.6684 35.4687C78.3324 36.0327 77.8344 36.4887 77.1744 36.8367C76.5264 37.1727 75.7584 37.3407 74.8704 37.3407ZM80.9277 32.2107C80.9277 31.2147 81.1317 30.3327 81.5397 29.5647C81.9597 28.7967 82.5237 28.2027 83.2317 27.7827C83.9517 27.3507 84.7437 27.1347 85.6077 27.1347C86.3877 27.1347 87.0657 27.2907 87.6417 27.6027C88.2297 27.9027 88.6977 28.2807 89.0457 28.7367V27.2967H91.1157V37.2147H89.0457V35.7387C88.6977 36.2067 88.2237 36.5967 87.6237 36.9087C87.0237 37.2207 86.3397 37.3767 85.5717 37.3767C84.7197 37.3767 83.9397 37.1607 83.2317 36.7287C82.5237 36.2847 81.9597 35.6727 81.5397 34.8927C81.1317 34.1007 80.9277 33.2067 80.9277 32.2107ZM89.0457 32.2467C89.0457 31.5627 88.9017 30.9687 88.6137 30.4647C88.3377 29.9607 87.9717 29.5767 87.5157 29.3127C87.0597 29.0487 86.5677 28.9167 86.0397 28.9167C85.5117 28.9167 85.0197 29.0487 84.5637 29.3127C84.1077 29.5647 83.7357 29.9427 83.4477 30.4467C83.1717 30.9387 83.0337 31.5267 83.0337 32.2107C83.0337 32.8947 83.1717 33.4947 83.4477 34.0107C83.7357 34.5267 84.1077 34.9227 84.5637 35.1987C85.0317 35.4627 85.5237 35.5947 86.0397 35.5947C86.5677 35.5947 87.0597 35.4627 87.5157 35.1987C87.9717 34.9347 88.3377 34.5507 88.6137 34.0467C88.9017 33.5307 89.0457 32.9307 89.0457 32.2467ZM97.6449 35.3787L100.453 27.2967H102.631L98.8509 37.2147H96.4029L92.6409 27.2967H94.8369L97.6449 35.3787ZM113.272 32.0127C113.272 32.3847 113.248 32.7207 113.2 33.0207H105.622C105.682 33.8127 105.976 34.4487 106.504 34.9287C107.032 35.4087 107.68 35.6487 108.448 35.6487C109.552 35.6487 110.332 35.1867 110.788 34.2627H113.002C112.702 35.1747 112.156 35.9247 111.364 36.5127C110.584 37.0887 109.612 37.3767 108.448 37.3767C107.5 37.3767 106.648 37.1667 105.892 36.7467C105.148 36.3147 104.56 35.7147 104.128 34.9467C103.708 34.1667 103.498 33.2667 103.498 32.2467C103.498 31.2267 103.702 30.3327 104.11 29.5647C104.53 28.7847 105.112 28.1847 105.856 27.7647C106.612 27.3447 107.476 27.1347 108.448 27.1347C109.384 27.1347 110.218 27.3387 110.95 27.7467C111.682 28.1547 112.252 28.7307 112.66 29.4747C113.068 30.2067 113.272 31.0527 113.272 32.0127ZM111.13 31.3647C111.118 30.6087 110.848 30.0027 110.32 29.5467C109.792 29.0907 109.138 28.8627 108.358 28.8627C107.65 28.8627 107.044 29.0907 106.54 29.5467C106.036 29.9907 105.736 30.5967 105.64 31.3647H111.13ZM114.607 32.2107C114.607 31.2147 114.811 30.3327 115.219 29.5647C115.639 28.7967 116.203 28.2027 116.911 27.7827C117.631 27.3507 118.429 27.1347 119.305 27.1347C119.953 27.1347 120.589 27.2787 121.213 27.5667C121.849 27.8427 122.353 28.2147 122.725 28.6827V23.8947H124.795V37.2147H122.725V35.7207C122.389 36.2007 121.921 36.5967 121.321 36.9087C120.733 37.2207 120.055 37.3767 119.287 37.3767C118.423 37.3767 117.631 37.1607 116.911 36.7287C116.203 36.2847 115.639 35.6727 115.219 34.8927C114.811 34.1007 114.607 33.2067 114.607 32.2107ZM122.725 32.2467C122.725 31.5627 122.581 30.9687 122.293 30.4647C122.017 29.9607 121.651 29.5767 121.195 29.3127C120.739 29.0487 120.247 28.9167 119.719 28.9167C119.191 28.9167 118.699 29.0487 118.243 29.3127C117.787 29.5647 117.415 29.9427 117.127 30.4467C116.851 30.9387 116.713 31.5267 116.713 32.2107C116.713 32.8947 116.851 33.4947 117.127 34.0107C117.415 34.5267 117.787 34.9227 118.243 35.1987C118.711 35.4627 119.203 35.5947 119.719 35.5947C120.247 35.5947 120.739 35.4627 121.195 35.1987C121.651 34.9347 122.017 34.5507 122.293 34.0467C122.581 33.5307 122.725 32.9307 122.725 32.2467ZM140.914 28.4307C140.914 29.0667 140.764 29.6667 140.464 30.2307C140.164 30.7947 139.684 31.2567 139.024 31.6167C138.364 31.9647 137.518 32.1387 136.486 32.1387H134.218V37.2147H132.166V24.7047H136.486C137.446 24.7047 138.256 24.8727 138.916 25.2087C139.588 25.5327 140.086 25.9767 140.41 26.5407C140.746 27.1047 140.914 27.7347 140.914 28.4307ZM136.486 30.4647C137.266 30.4647 137.848 30.2907 138.232 29.9427C138.616 29.5827 138.808 29.0787 138.808 28.4307C138.808 27.0627 138.034 26.3787 136.486 26.3787H134.218V30.4647H136.486ZM142.187 32.2107C142.187 31.2147 142.391 30.3327 142.799 29.5647C143.219 28.7967 143.783 28.2027 144.491 27.7827C145.211 27.3507 146.003 27.1347 146.867 27.1347C147.647 27.1347 148.325 27.2907 148.901 27.6027C149.489 27.9027 149.957 28.2807 150.305 28.7367V27.2967H152.375V37.2147H150.305V35.7387C149.957 36.2067 149.483 36.5967 148.883 36.9087C148.283 37.2207 147.599 37.3767 146.831 37.3767C145.979 37.3767 145.199 37.1607 144.491 36.7287C143.783 36.2847 143.219 35.6727 142.799 34.8927C142.391 34.1007 142.187 33.2067 142.187 32.2107ZM150.305 32.2467C150.305 31.5627 150.161 30.9687 149.873 30.4647C149.597 29.9607 149.231 29.5767 148.775 29.3127C148.319 29.0487 147.827 28.9167 147.299 28.9167C146.771 28.9167 146.279 29.0487 145.823 29.3127C145.367 29.5647 144.995 29.9427 144.707 30.4467C144.431 30.9387 144.293 31.5267 144.293 32.2107C144.293 32.8947 144.431 33.4947 144.707 34.0107C144.995 34.5267 145.367 34.9227 145.823 35.1987C146.291 35.4627 146.783 35.5947 147.299 35.5947C147.827 35.5947 148.319 35.4627 148.775 35.1987C149.231 34.9347 149.597 34.5507 149.873 34.0467C150.161 33.5307 150.305 32.9307 150.305 32.2467ZM157.123 28.7367C157.423 28.2327 157.819 27.8427 158.311 27.5667C158.815 27.2787 159.409 27.1347 160.093 27.1347V29.2587H159.571C158.767 29.2587 158.155 29.4627 157.735 29.8707C157.327 30.2787 157.123 30.9867 157.123 31.9947V37.2147H155.071V27.2967H157.123V28.7367ZM165.903 32.2647L170.475 37.2147H167.703L164.031 32.9487V37.2147H161.979V23.8947H164.031V31.6347L167.631 27.2967H170.475L165.903 32.2647ZM172.99 25.9827C172.618 25.9827 172.306 25.8567 172.054 25.6047C171.802 25.3527 171.676 25.0407 171.676 24.6687C171.676 24.2967 171.802 23.9847 172.054 23.7327C172.306 23.4807 172.618 23.3547 172.99 23.3547C173.35 23.3547 173.656 23.4807 173.908 23.7327C174.16 23.9847 174.286 24.2967 174.286 24.6687C174.286 25.0407 174.16 25.3527 173.908 25.6047C173.656 25.8567 173.35 25.9827 172.99 25.9827ZM173.998 27.2967V37.2147H171.946V27.2967H173.998ZM181.696 27.1347C182.476 27.1347 183.172 27.2967 183.784 27.6207C184.408 27.9447 184.894 28.4247 185.242 29.0607C185.59 29.6967 185.764 30.4647 185.764 31.3647V37.2147H183.73V31.6707C183.73 30.7827 183.508 30.1047 183.064 29.6367C182.62 29.1567 182.014 28.9167 181.246 28.9167C180.478 28.9167 179.866 29.1567 179.41 29.6367C178.966 30.1047 178.744 30.7827 178.744 31.6707V37.2147H176.692V27.2967H178.744V28.4307C179.08 28.0227 179.506 27.7047 180.022 27.4767C180.55 27.2487 181.108 27.1347 181.696 27.1347ZM192.377 27.1347C193.145 27.1347 193.823 27.2907 194.411 27.6027C195.011 27.9027 195.479 28.2807 195.815 28.7367V27.2967H197.885V37.3767C197.885 38.2887 197.693 39.0987 197.309 39.8067C196.925 40.5267 196.367 41.0907 195.635 41.4987C194.915 41.9067 194.051 42.1107 193.043 42.1107C191.699 42.1107 190.583 41.7927 189.695 41.1567C188.807 40.5327 188.303 39.6807 188.183 38.6007H190.217C190.373 39.1167 190.703 39.5307 191.207 39.8427C191.723 40.1667 192.335 40.3287 193.043 40.3287C193.871 40.3287 194.537 40.0767 195.041 39.5727C195.557 39.0687 195.815 38.3367 195.815 37.3767V35.7207C195.467 36.1887 194.993 36.5847 194.393 36.9087C193.805 37.2207 193.133 37.3767 192.377 37.3767C191.513 37.3767 190.721 37.1607 190.001 36.7287C189.293 36.2847 188.729 35.6727 188.309 34.8927C187.901 34.1007 187.697 33.2067 187.697 32.2107C187.697 31.2147 187.901 30.3327 188.309 29.5647C188.729 28.7967 189.293 28.2027 190.001 27.7827C190.721 27.3507 191.513 27.1347 192.377 27.1347ZM195.815 32.2467C195.815 31.5627 195.671 30.9687 195.383 30.4647C195.107 29.9607 194.741 29.5767 194.285 29.3127C193.829 29.0487 193.337 28.9167 192.809 28.9167C192.281 28.9167 191.789 29.0487 191.333 29.3127C190.877 29.5647 190.505 29.9427 190.217 30.4467C189.941 30.9387 189.803 31.5267 189.803 32.2107C189.803 32.8947 189.941 33.4947 190.217 34.0107C190.505 34.5267 190.877 34.9227 191.333 35.1987C191.801 35.4627 192.293 35.5947 192.809 35.5947C193.337 35.5947 193.829 35.4627 194.285 35.1987C194.741 34.9347 195.107 34.5507 195.383 34.0467C195.671 33.5307 195.815 32.9307 195.815 32.2467ZM207.308 35.5587H211.538V37.2147H205.256V24.7047H207.308V35.5587ZM217.556 37.3767C216.62 37.3767 215.774 37.1667 215.018 36.7467C214.262 36.3147 213.668 35.7147 213.236 34.9467C212.804 34.1667 212.588 33.2667 212.588 32.2467C212.588 31.2387 212.81 30.3447 213.254 29.5647C213.698 28.7847 214.304 28.1847 215.072 27.7647C215.84 27.3447 216.698 27.1347 217.646 27.1347C218.594 27.1347 219.452 27.3447 220.22 27.7647C220.988 28.1847 221.594 28.7847 222.038 29.5647C222.482 30.3447 222.704 31.2387 222.704 32.2467C222.704 33.2547 222.476 34.1487 222.02 34.9287C221.564 35.7087 220.94 36.3147 220.148 36.7467C219.368 37.1667 218.504 37.3767 217.556 37.3767ZM217.556 35.5947C218.084 35.5947 218.576 35.4687 219.032 35.2167C219.5 34.9647 219.878 34.5867 220.166 34.0827C220.454 33.5787 220.598 32.9667 220.598 32.2467C220.598 31.5267 220.46 30.9207 220.184 30.4287C219.908 29.9247 219.542 29.5467 219.086 29.2947C218.63 29.0427 218.138 28.9167 217.61 28.9167C217.082 28.9167 216.59 29.0427 216.134 29.2947C215.69 29.5467 215.336 29.9247 215.072 30.4287C214.808 30.9207 214.676 31.5267 214.676 32.2467C214.676 33.3147 214.946 34.1427 215.486 34.7307C216.038 35.3067 216.728 35.5947 217.556 35.5947ZM224.049 32.2467C224.049 31.2267 224.253 30.3327 224.661 29.5647C225.081 28.7847 225.657 28.1847 226.389 27.7647C227.121 27.3447 227.961 27.1347 228.909 27.1347C230.109 27.1347 231.099 27.4227 231.879 27.9987C232.671 28.5627 233.205 29.3727 233.481 30.4287H231.267C231.087 29.9367 230.799 29.5527 230.403 29.2767C230.007 29.0007 229.509 28.8627 228.909 28.8627C228.069 28.8627 227.397 29.1627 226.893 29.7627C226.401 30.3507 226.155 31.1787 226.155 32.2467C226.155 33.3147 226.401 34.1487 226.893 34.7487C227.397 35.3487 228.069 35.6487 228.909 35.6487C230.097 35.6487 230.883 35.1267 231.267 34.0827H233.481C233.193 35.0907 232.653 35.8947 231.861 36.4947C231.069 37.0827 230.085 37.3767 228.909 37.3767C227.961 37.3767 227.121 37.1667 226.389 36.7467C225.657 36.3147 225.081 35.7147 224.661 34.9467C224.253 34.1667 224.049 33.2667 224.049 32.2467ZM234.842 32.2107C234.842 31.2147 235.046 30.3327 235.454 29.5647C235.874 28.7967 236.438 28.2027 237.146 27.7827C237.866 27.3507 238.658 27.1347 239.522 27.1347C240.302 27.1347 240.98 27.2907 241.556 27.6027C242.144 27.9027 242.612 28.2807 242.96 28.7367V27.2967H245.03V37.2147H242.96V35.7387C242.612 36.2067 242.138 36.5967 241.538 36.9087C240.938 37.2207 240.254 37.3767 239.486 37.3767C238.634 37.3767 237.854 37.1607 237.146 36.7287C236.438 36.2847 235.874 35.6727 235.454 34.8927C235.046 34.1007 234.842 33.2067 234.842 32.2107ZM242.96 32.2467C242.96 31.5627 242.816 30.9687 242.528 30.4647C242.252 29.9607 241.886 29.5767 241.43 29.3127C240.974 29.0487 240.482 28.9167 239.954 28.9167C239.426 28.9167 238.934 29.0487 238.478 29.3127C238.022 29.5647 237.65 29.9427 237.362 30.4467C237.086 30.9387 236.948 31.5267 236.948 32.2107C236.948 32.8947 237.086 33.4947 237.362 34.0107C237.65 34.5267 238.022 34.9227 238.478 35.1987C238.946 35.4627 239.438 35.5947 239.954 35.5947C240.482 35.5947 240.974 35.4627 241.43 35.1987C241.886 34.9347 242.252 34.5507 242.528 34.0467C242.816 33.5307 242.96 32.9307 242.96 32.2467ZM250.119 28.9707V34.4607C250.119 34.8327 250.203 35.1027 250.371 35.2707C250.551 35.4267 250.851 35.5047 251.271 35.5047H252.531V37.2147H250.911C249.987 37.2147 249.279 36.9987 248.787 36.5667C248.295 36.1347 248.049 35.4327 248.049 34.4607V28.9707H246.879V27.2967H248.049V24.8307H250.119V27.2967H252.531V28.9707H250.119ZM255.466 25.9827C255.094 25.9827 254.782 25.8567 254.53 25.6047C254.278 25.3527 254.152 25.0407 254.152 24.6687C254.152 24.2967 254.278 23.9847 254.53 23.7327C254.782 23.4807 255.094 23.3547 255.466 23.3547C255.826 23.3547 256.132 23.4807 256.384 23.7327C256.636 23.9847 256.762 24.2967 256.762 24.6687C256.762 25.0407 256.636 25.3527 256.384 25.6047C256.132 25.8567 255.826 25.9827 255.466 25.9827ZM256.474 27.2967V37.2147H254.422V27.2967H256.474ZM263.47 37.3767C262.534 37.3767 261.688 37.1667 260.932 36.7467C260.176 36.3147 259.582 35.7147 259.15 34.9467C258.718 34.1667 258.502 33.2667 258.502 32.2467C258.502 31.2387 258.724 30.3447 259.168 29.5647C259.612 28.7847 260.218 28.1847 260.986 27.7647C261.754 27.3447 262.612 27.1347 263.56 27.1347C264.508 27.1347 265.366 27.3447 266.134 27.7647C266.902 28.1847 267.508 28.7847 267.952 29.5647C268.396 30.3447 268.618 31.2387 268.618 32.2467C268.618 33.2547 268.39 34.1487 267.934 34.9287C267.478 35.7087 266.854 36.3147 266.062 36.7467C265.282 37.1667 264.418 37.3767 263.47 37.3767ZM263.47 35.5947C263.998 35.5947 264.49 35.4687 264.946 35.2167C265.414 34.9647 265.792 34.5867 266.08 34.0827C266.368 33.5787 266.512 32.9667 266.512 32.2467C266.512 31.5267 266.374 30.9207 266.098 30.4287C265.822 29.9247 265.456 29.5467 265 29.2947C264.544 29.0427 264.052 28.9167 263.524 28.9167C262.996 28.9167 262.504 29.0427 262.048 29.2947C261.604 29.5467 261.25 29.9247 260.986 30.4287C260.722 30.9207 260.59 31.5267 260.59 32.2467C260.59 33.3147 260.86 34.1427 261.4 34.7307C261.952 35.3067 262.642 35.5947 263.47 35.5947ZM275.651 27.1347C276.431 27.1347 277.127 27.2967 277.739 27.6207C278.363 27.9447 278.849 28.4247 279.197 29.0607C279.545 29.6967 279.719 30.4647 279.719 31.3647V37.2147H277.685V31.6707C277.685 30.7827 277.463 30.1047 277.019 29.6367C276.575 29.1567 275.969 28.9167 275.201 28.9167C274.433 28.9167 273.821 29.1567 273.365 29.6367C272.921 30.1047 272.699 30.7827 272.699 31.6707V37.2147H270.647V27.2967H272.699V28.4307C273.035 28.0227 273.461 27.7047 273.977 27.4767C274.505 27.2487 275.063 27.1347 275.651 27.1347ZM285.936 37.3767C285.156 37.3767 284.454 37.2387 283.83 36.9627C283.218 36.6747 282.732 36.2907 282.372 35.8107C282.012 35.3187 281.82 34.7727 281.796 34.1727H283.92C283.956 34.5927 284.154 34.9467 284.514 35.2347C284.886 35.5107 285.348 35.6487 285.9 35.6487C286.476 35.6487 286.92 35.5407 287.232 35.3247C287.556 35.0967 287.718 34.8087 287.718 34.4607C287.718 34.0887 287.538 33.8127 287.178 33.6327C286.83 33.4527 286.272 33.2547 285.504 33.0387C284.76 32.8347 284.154 32.6367 283.686 32.4447C283.218 32.2527 282.81 31.9587 282.462 31.5627C282.126 31.1667 281.958 30.6447 281.958 29.9967C281.958 29.4687 282.114 28.9887 282.426 28.5567C282.738 28.1127 283.182 27.7647 283.758 27.5127C284.346 27.2607 285.018 27.1347 285.774 27.1347C286.902 27.1347 287.808 27.4227 288.492 27.9987C289.188 28.5627 289.56 29.3367 289.608 30.3207H287.556C287.52 29.8767 287.34 29.5227 287.016 29.2587C286.692 28.9947 286.254 28.8627 285.702 28.8627C285.162 28.8627 284.748 28.9647 284.46 29.1687C284.172 29.3727 284.028 29.6427 284.028 29.9787C284.028 30.2427 284.124 30.4647 284.316 30.6447C284.508 30.8247 284.742 30.9687 285.018 31.0767C285.294 31.1727 285.702 31.2987 286.242 31.4547C286.962 31.6467 287.55 31.8447 288.006 32.0487C288.474 32.2407 288.876 32.5287 289.212 32.9127C289.548 33.2967 289.722 33.8067 289.734 34.4427C289.734 35.0067 289.578 35.5107 289.266 35.9547C288.954 36.3987 288.51 36.7467 287.934 36.9987C287.37 37.2507 286.704 37.3767 285.936 37.3767Z" fill="white"/>
<path d="M27.8206 30.0076C27.43 30.3981 27.43 31.0313 27.8206 31.4218L34.1845 37.7858C34.5751 38.1763 35.2082 38.1763 35.5987 37.7858C35.9893 37.3952 35.9893 36.7621 35.5987 36.3715L29.9419 30.7147L35.5987 25.0578C35.9893 24.6673 35.9893 24.0342 35.5987 23.6436C35.2082 23.2531 34.5751 23.2531 34.1845 23.6436L27.8206 30.0076ZM49.6882 30.7147L49.6882 29.7147L28.5277 29.7147L28.5277 30.7147L28.5277 31.7147L49.6882 31.7147L49.6882 30.7147Z" fill="white"/>
<rect y="54.2575" width="360" height="56.8753" fill="#D9D9D9"/>
<path d="M59.2095 80.8002C59.2095 81.6702 58.9095 82.3952 58.3095 82.9752C57.7195 83.5452 56.8145 83.8302 55.5945 83.8302H53.5845V88.1952H52.2195V77.7402H55.5945C56.7745 77.7402 57.6695 78.0252 58.2795 78.5952C58.8995 79.1652 59.2095 79.9002 59.2095 80.8002ZM55.5945 82.7052C56.3545 82.7052 56.9145 82.5402 57.2745 82.2102C57.6345 81.8802 57.8145 81.4102 57.8145 80.8002C57.8145 79.5102 57.0745 78.8652 55.5945 78.8652H53.5845V82.7052H55.5945ZM60.396 84.0552C60.396 83.2152 60.566 82.4802 60.906 81.8502C61.246 81.2102 61.711 80.7152 62.301 80.3652C62.901 80.0152 63.566 79.8402 64.296 79.8402C65.016 79.8402 65.641 79.9952 66.171 80.3052C66.701 80.6152 67.096 81.0052 67.356 81.4752V79.9752H68.736V88.1952H67.356V86.6652C67.086 87.1452 66.681 87.5452 66.141 87.8652C65.611 88.1752 64.991 88.3302 64.281 88.3302C63.551 88.3302 62.891 88.1502 62.301 87.7902C61.711 87.4302 61.246 86.9252 60.906 86.2752C60.566 85.6252 60.396 84.8852 60.396 84.0552ZM67.356 84.0702C67.356 83.4502 67.231 82.9102 66.981 82.4502C66.731 81.9902 66.391 81.6402 65.961 81.4002C65.541 81.1502 65.076 81.0252 64.566 81.0252C64.056 81.0252 63.591 81.1452 63.171 81.3852C62.751 81.6252 62.416 81.9752 62.166 82.4352C61.916 82.8952 61.791 83.4352 61.791 84.0552C61.791 84.6852 61.916 85.2352 62.166 85.7052C62.416 86.1652 62.751 86.5202 63.171 86.7702C63.591 87.0102 64.056 87.1302 64.566 87.1302C65.076 87.1302 65.541 87.0102 65.961 86.7702C66.391 86.5202 66.731 86.1652 66.981 85.7052C67.231 85.2352 67.356 84.6902 67.356 84.0702ZM72.4077 81.3102C72.6477 80.8402 72.9877 80.4752 73.4277 80.2152C73.8777 79.9552 74.4227 79.8252 75.0627 79.8252V81.2352H74.7027C73.1727 81.2352 72.4077 82.0652 72.4077 83.7252V88.1952H71.0427V79.9752H72.4077V81.3102ZM81.2284 88.1952L78.0034 84.5652V88.1952H76.6384V77.0952H78.0034V83.6202L81.1684 79.9752H83.0734L79.2034 84.0702L83.0884 88.1952H81.2284ZM85.0631 78.6402C84.8031 78.6402 84.5831 78.5502 84.4031 78.3702C84.2231 78.1902 84.1331 77.9702 84.1331 77.7102C84.1331 77.4502 84.2231 77.2302 84.4031 77.0502C84.5831 76.8702 84.8031 76.7802 85.0631 76.7802C85.3131 76.7802 85.5231 76.8702 85.6931 77.0502C85.8731 77.2302 85.9631 77.4502 85.9631 77.7102C85.9631 77.9702 85.8731 78.1902 85.6931 78.3702C85.5231 78.5502 85.3131 78.6402 85.0631 78.6402ZM85.7231 79.9752V88.1952H84.3581V79.9752H85.7231ZM92.0545 79.8252C93.0545 79.8252 93.8645 80.1302 94.4845 80.7402C95.1045 81.3402 95.4145 82.2102 95.4145 83.3502V88.1952H94.0645V83.5452C94.0645 82.7252 93.8595 82.1002 93.4495 81.6702C93.0395 81.2302 92.4795 81.0102 91.7695 81.0102C91.0495 81.0102 90.4745 81.2352 90.0445 81.6852C89.6245 82.1352 89.4145 82.7902 89.4145 83.6502V88.1952H88.0495V79.9752H89.4145V81.1452C89.6845 80.7252 90.0495 80.4002 90.5095 80.1702C90.9795 79.9402 91.4945 79.8252 92.0545 79.8252ZM101.034 79.8402C101.744 79.8402 102.364 79.9952 102.894 80.3052C103.434 80.6152 103.834 81.0052 104.094 81.4752V79.9752H105.474V88.3752C105.474 89.1252 105.314 89.7902 104.994 90.3702C104.674 90.9602 104.214 91.4202 103.614 91.7502C103.024 92.0802 102.334 92.2452 101.544 92.2452C100.464 92.2452 99.5643 91.9902 98.8443 91.4802C98.1243 90.9702 97.6993 90.2752 97.5693 89.3952H98.9193C99.0693 89.8952 99.3793 90.2952 99.8493 90.5952C100.319 90.9052 100.884 91.0602 101.544 91.0602C102.294 91.0602 102.904 90.8252 103.374 90.3552C103.854 89.8852 104.094 89.2252 104.094 88.3752V86.6502C103.824 87.1302 103.424 87.5302 102.894 87.8502C102.364 88.1702 101.744 88.3302 101.034 88.3302C100.304 88.3302 99.6393 88.1502 99.0393 87.7902C98.4493 87.4302 97.9843 86.9252 97.6443 86.2752C97.3043 85.6252 97.1343 84.8852 97.1343 84.0552C97.1343 83.2152 97.3043 82.4802 97.6443 81.8502C97.9843 81.2102 98.4493 80.7152 99.0393 80.3652C99.6393 80.0152 100.304 79.8402 101.034 79.8402ZM104.094 84.0702C104.094 83.4502 103.969 82.9102 103.719 82.4502C103.469 81.9902 103.129 81.6402 102.699 81.4002C102.279 81.1502 101.814 81.0252 101.304 81.0252C100.794 81.0252 100.329 81.1452 99.9093 81.3852C99.4893 81.6252 99.1543 81.9752 98.9043 82.4352C98.6543 82.8952 98.5293 83.4352 98.5293 84.0552C98.5293 84.6852 98.6543 85.2352 98.9043 85.7052C99.1543 86.1652 99.4893 86.5202 99.9093 86.7702C100.329 87.0102 100.794 87.1302 101.304 87.1302C101.814 87.1302 102.279 87.0102 102.699 86.7702C103.129 86.5202 103.469 86.1652 103.719 85.7052C103.969 85.2352 104.094 84.6902 104.094 84.0702ZM115.095 88.3002C114.405 88.3002 113.785 88.1802 113.235 87.9402C112.695 87.6902 112.27 87.3502 111.96 86.9202C111.65 86.4802 111.49 85.9752 111.48 85.4052H112.935C112.985 85.8952 113.185 86.3102 113.535 86.6502C113.895 86.9802 114.415 87.1452 115.095 87.1452C115.745 87.1452 116.255 86.9852 116.625 86.6652C117.005 86.3352 117.195 85.9152 117.195 85.4052C117.195 85.0052 117.085 84.6802 116.865 84.4302C116.645 84.1802 116.37 83.9902 116.04 83.8602C115.71 83.7302 115.265 83.5902 114.705 83.4402C114.015 83.2602 113.46 83.0802 113.04 82.9002C112.63 82.7202 112.275 82.4402 111.975 82.0602C111.685 81.6702 111.54 81.1502 111.54 80.5002C111.54 79.9302 111.685 79.4252 111.975 78.9852C112.265 78.5452 112.67 78.2052 113.19 77.9652C113.72 77.7252 114.325 77.6052 115.005 77.6052C115.985 77.6052 116.785 77.8502 117.405 78.3402C118.035 78.8302 118.39 79.4802 118.47 80.2902H116.97C116.92 79.8902 116.71 79.5402 116.34 79.2402C115.97 78.9302 115.48 78.7752 114.87 78.7752C114.3 78.7752 113.835 78.9252 113.475 79.2252C113.115 79.5152 112.935 79.9252 112.935 80.4552C112.935 80.8352 113.04 81.1452 113.25 81.3852C113.47 81.6252 113.735 81.8102 114.045 81.9402C114.365 82.0602 114.81 82.2002 115.38 82.3602C116.07 82.5502 116.625 82.7402 117.045 82.9302C117.465 83.1102 117.825 83.3952 118.125 83.7852C118.425 84.1652 118.575 84.6852 118.575 85.3452C118.575 85.8552 118.44 86.3352 118.17 86.7852C117.9 87.2352 117.5 87.6002 116.97 87.8802C116.44 88.1602 115.815 88.3002 115.095 88.3002ZM121.949 81.4902C122.219 81.0202 122.619 80.6302 123.149 80.3202C123.689 80.0002 124.314 79.8402 125.024 79.8402C125.754 79.8402 126.414 80.0152 127.004 80.3652C127.604 80.7152 128.074 81.2102 128.414 81.8502C128.754 82.4802 128.924 83.2152 128.924 84.0552C128.924 84.8852 128.754 85.6252 128.414 86.2752C128.074 86.9252 127.604 87.4302 127.004 87.7902C126.414 88.1502 125.754 88.3302 125.024 88.3302C124.324 88.3302 123.704 88.1752 123.164 87.8652C122.634 87.5452 122.229 87.1502 121.949 86.6802V92.0952H120.584V79.9752H121.949V81.4902ZM127.529 84.0552C127.529 83.4352 127.404 82.8952 127.154 82.4352C126.904 81.9752 126.564 81.6252 126.134 81.3852C125.714 81.1452 125.249 81.0252 124.739 81.0252C124.239 81.0252 123.774 81.1502 123.344 81.4002C122.924 81.6402 122.584 81.9952 122.324 82.4652C122.074 82.9252 121.949 83.4602 121.949 84.0702C121.949 84.6902 122.074 85.2352 122.324 85.7052C122.584 86.1652 122.924 86.5202 123.344 86.7702C123.774 87.0102 124.239 87.1302 124.739 87.1302C125.249 87.1302 125.714 87.0102 126.134 86.7702C126.564 86.5202 126.904 86.1652 127.154 85.7052C127.404 85.2352 127.529 84.6852 127.529 84.0552ZM134.305 88.3302C133.535 88.3302 132.835 88.1552 132.205 87.8052C131.585 87.4552 131.095 86.9602 130.735 86.3202C130.385 85.6702 130.21 84.9202 130.21 84.0702C130.21 83.2302 130.39 82.4902 130.75 81.8502C131.12 81.2002 131.62 80.7052 132.25 80.3652C132.88 80.0152 133.585 79.8402 134.365 79.8402C135.145 79.8402 135.85 80.0152 136.48 80.3652C137.11 80.7052 137.605 81.1952 137.965 81.8352C138.335 82.4752 138.52 83.2202 138.52 84.0702C138.52 84.9202 138.33 85.6702 137.95 86.3202C137.58 86.9602 137.075 87.4552 136.435 87.8052C135.795 88.1552 135.085 88.3302 134.305 88.3302ZM134.305 87.1302C134.795 87.1302 135.255 87.0152 135.685 86.7852C136.115 86.5552 136.46 86.2102 136.72 85.7502C136.99 85.2902 137.125 84.7302 137.125 84.0702C137.125 83.4102 136.995 82.8502 136.735 82.3902C136.475 81.9302 136.135 81.5902 135.715 81.3702C135.295 81.1402 134.84 81.0252 134.35 81.0252C133.85 81.0252 133.39 81.1402 132.97 81.3702C132.56 81.5902 132.23 81.9302 131.98 82.3902C131.73 82.8502 131.605 83.4102 131.605 84.0702C131.605 84.7402 131.725 85.3052 131.965 85.7652C132.215 86.2252 132.545 86.5702 132.955 86.8002C133.365 87.0202 133.815 87.1302 134.305 87.1302ZM141.98 81.1002V85.9452C141.98 86.3452 142.065 86.6302 142.235 86.8002C142.405 86.9602 142.7 87.0402 143.12 87.0402H144.125V88.1952H142.895C142.135 88.1952 141.565 88.0202 141.185 87.6702C140.805 87.3202 140.615 86.7452 140.615 85.9452V81.1002H139.55V79.9752H140.615V77.9052H141.98V79.9752H144.125V81.1002H141.98ZM149.268 84.0552C149.268 83.2152 149.438 82.4802 149.778 81.8502C150.118 81.2102 150.583 80.7152 151.173 80.3652C151.773 80.0152 152.438 79.8402 153.168 79.8402C153.888 79.8402 154.513 79.9952 155.043 80.3052C155.573 80.6152 155.968 81.0052 156.228 81.4752V79.9752H157.608V88.1952H156.228V86.6652C155.958 87.1452 155.553 87.5452 155.013 87.8652C154.483 88.1752 153.863 88.3302 153.153 88.3302C152.423 88.3302 151.763 88.1502 151.173 87.7902C150.583 87.4302 150.118 86.9252 149.778 86.2752C149.438 85.6252 149.268 84.8852 149.268 84.0552ZM156.228 84.0702C156.228 83.4502 156.103 82.9102 155.853 82.4502C155.603 81.9902 155.263 81.6402 154.833 81.4002C154.413 81.1502 153.948 81.0252 153.438 81.0252C152.928 81.0252 152.463 81.1452 152.043 81.3852C151.623 81.6252 151.288 81.9752 151.038 82.4352C150.788 82.8952 150.663 83.4352 150.663 84.0552C150.663 84.6852 150.788 85.2352 151.038 85.7052C151.288 86.1652 151.623 86.5202 152.043 86.7702C152.463 87.0102 152.928 87.1302 153.438 87.1302C153.948 87.1302 154.413 87.0102 154.833 86.7702C155.263 86.5202 155.603 86.1652 155.853 85.7052C156.103 85.2352 156.228 84.6902 156.228 84.0702ZM161.58 81.1002V85.9452C161.58 86.3452 161.665 86.6302 161.835 86.8002C162.005 86.9602 162.3 87.0402 162.72 87.0402H163.725V88.1952H162.495C161.735 88.1952 161.165 88.0202 160.785 87.6702C160.405 87.3202 160.215 86.7452 160.215 85.9452V81.1002H159.15V79.9752H160.215V77.9052H161.58V79.9752H163.725V81.1002H161.58ZM179.983 77.8152V88.1952H178.618V80.4552L175.168 88.1952H174.208L170.743 80.4402V88.1952H169.378V77.8152H170.848L174.688 86.3952L178.528 77.8152H179.983ZM181.788 84.0552C181.788 83.2152 181.958 82.4802 182.298 81.8502C182.638 81.2102 183.103 80.7152 183.693 80.3652C184.293 80.0152 184.958 79.8402 185.688 79.8402C186.408 79.8402 187.033 79.9952 187.563 80.3052C188.093 80.6152 188.488 81.0052 188.748 81.4752V79.9752H190.128V88.1952H188.748V86.6652C188.478 87.1452 188.073 87.5452 187.533 87.8652C187.003 88.1752 186.383 88.3302 185.673 88.3302C184.943 88.3302 184.283 88.1502 183.693 87.7902C183.103 87.4302 182.638 86.9252 182.298 86.2752C181.958 85.6252 181.788 84.8852 181.788 84.0552ZM188.748 84.0702C188.748 83.4502 188.623 82.9102 188.373 82.4502C188.123 81.9902 187.783 81.6402 187.353 81.4002C186.933 81.1502 186.468 81.0252 185.958 81.0252C185.448 81.0252 184.983 81.1452 184.563 81.3852C184.143 81.6252 183.808 81.9752 183.558 82.4352C183.308 82.8952 183.183 83.4352 183.183 84.0552C183.183 84.6852 183.308 85.2352 183.558 85.7052C183.808 86.1652 184.143 86.5202 184.563 86.7702C184.983 87.0102 185.448 87.1302 185.958 87.1302C186.468 87.1302 186.933 87.0102 187.353 86.7702C187.783 86.5202 188.123 86.1652 188.373 85.7052C188.623 85.2352 188.748 84.6902 188.748 84.0702ZM199.514 79.9752L194.564 92.0652H193.154L194.774 88.1052L191.459 79.9752H192.974L195.554 86.6352L198.104 79.9752H199.514ZM204.66 82.6602C204.66 80.9402 204.94 79.6002 205.5 78.6402C206.06 77.6702 207.04 77.1852 208.44 77.1852C209.83 77.1852 210.805 77.6702 211.365 78.6402C211.925 79.6002 212.205 80.9402 212.205 82.6602C212.205 84.4102 211.925 85.7702 211.365 86.7402C210.805 87.7102 209.83 88.1952 208.44 88.1952C207.04 88.1952 206.06 87.7102 205.5 86.7402C204.94 85.7702 204.66 84.4102 204.66 82.6602ZM210.855 82.6602C210.855 81.7902 210.795 81.0552 210.675 80.4552C210.565 79.8452 210.33 79.3552 209.97 78.9852C209.62 78.6152 209.11 78.4302 208.44 78.4302C207.76 78.4302 207.24 78.6152 206.88 78.9852C206.53 79.3552 206.295 79.8452 206.175 80.4552C206.065 81.0552 206.01 81.7902 206.01 82.6602C206.01 83.5602 206.065 84.3152 206.175 84.9252C206.295 85.5352 206.53 86.0252 206.88 86.3952C207.24 86.7652 207.76 86.9502 208.44 86.9502C209.11 86.9502 209.62 86.7652 209.97 86.3952C210.33 86.0252 210.565 85.5352 210.675 84.9252C210.795 84.3152 210.855 83.5602 210.855 82.6602ZM216.059 82.5552C215.499 82.3352 215.069 82.0152 214.769 81.5952C214.469 81.1752 214.319 80.6652 214.319 80.0652C214.319 79.5252 214.454 79.0402 214.724 78.6102C214.994 78.1702 215.394 77.8252 215.924 77.5752C216.464 77.3152 217.114 77.1852 217.874 77.1852C218.634 77.1852 219.279 77.3152 219.809 77.5752C220.349 77.8252 220.754 78.1702 221.024 78.6102C221.304 79.0402 221.444 79.5252 221.444 80.0652C221.444 80.6452 221.289 81.1552 220.979 81.5952C220.669 82.0252 220.244 82.3452 219.704 82.5552C220.324 82.7452 220.814 83.0802 221.174 83.5602C221.544 84.0302 221.729 84.6002 221.729 85.2702C221.729 85.9202 221.569 86.4902 221.249 86.9802C220.929 87.4602 220.474 87.8352 219.884 88.1052C219.304 88.3652 218.634 88.4952 217.874 88.4952C217.114 88.4952 216.444 88.3652 215.864 88.1052C215.294 87.8352 214.849 87.4602 214.529 86.9802C214.209 86.4902 214.049 85.9202 214.049 85.2702C214.049 84.6002 214.229 84.0252 214.589 83.5452C214.949 83.0652 215.439 82.7352 216.059 82.5552ZM220.124 80.2302C220.124 79.6202 219.924 79.1502 219.524 78.8202C219.124 78.4902 218.574 78.3252 217.874 78.3252C217.184 78.3252 216.639 78.4902 216.239 78.8202C215.839 79.1502 215.639 79.6252 215.639 80.2452C215.639 80.8052 215.844 81.2552 216.254 81.5952C216.674 81.9352 217.214 82.1052 217.874 82.1052C218.544 82.1052 219.084 81.9352 219.494 81.5952C219.914 81.2452 220.124 80.7902 220.124 80.2302ZM217.874 83.1552C217.134 83.1552 216.529 83.3302 216.059 83.6802C215.589 84.0202 215.354 84.5352 215.354 85.2252C215.354 85.8652 215.579 86.3802 216.029 86.7702C216.489 87.1602 217.104 87.3552 217.874 87.3552C218.644 87.3552 219.254 87.1602 219.704 86.7702C220.154 86.3802 220.379 85.8652 220.379 85.2252C220.379 84.5552 220.149 84.0452 219.689 83.6952C219.229 83.3352 218.624 83.1552 217.874 83.1552ZM225.177 86.3052L223.497 90.3402H222.582L223.677 86.3052H225.177ZM230.35 87.1002C231.62 86.0802 232.615 85.2452 233.335 84.5952C234.055 83.9352 234.66 83.2502 235.15 82.5402C235.65 81.8202 235.9 81.1152 235.9 80.4252C235.9 79.7752 235.74 79.2652 235.42 78.8952C235.11 78.5152 234.605 78.3252 233.905 78.3252C233.225 78.3252 232.695 78.5402 232.315 78.9702C231.945 79.3902 231.745 79.9552 231.715 80.6652H230.395C230.435 79.5452 230.775 78.6802 231.415 78.0702C232.055 77.4602 232.88 77.1552 233.89 77.1552C234.92 77.1552 235.735 77.4402 236.335 78.0102C236.945 78.5802 237.25 79.3652 237.25 80.3652C237.25 81.1952 237 82.0052 236.5 82.7952C236.01 83.5752 235.45 84.2652 234.82 84.8652C234.19 85.4552 233.385 86.1452 232.405 86.9352H237.565V88.0752H230.35V87.1002ZM239.143 82.6602C239.143 80.9402 239.423 79.6002 239.983 78.6402C240.543 77.6702 241.523 77.1852 242.923 77.1852C244.313 77.1852 245.288 77.6702 245.848 78.6402C246.408 79.6002 246.688 80.9402 246.688 82.6602C246.688 84.4102 246.408 85.7702 245.848 86.7402C245.288 87.7102 244.313 88.1952 242.923 88.1952C241.523 88.1952 240.543 87.7102 239.983 86.7402C239.423 85.7702 239.143 84.4102 239.143 82.6602ZM245.338 82.6602C245.338 81.7902 245.278 81.0552 245.158 80.4552C245.048 79.8452 244.813 79.3552 244.453 78.9852C244.103 78.6152 243.593 78.4302 242.923 78.4302C242.243 78.4302 241.723 78.6152 241.363 78.9852C241.013 79.3552 240.778 79.8452 240.658 80.4552C240.548 81.0552 240.493 81.7902 240.493 82.6602C240.493 83.5602 240.548 84.3152 240.658 84.9252C240.778 85.5352 241.013 86.0252 241.363 86.3952C241.723 86.7652 242.243 86.9502 242.923 86.9502C243.593 86.9502 244.103 86.7652 244.453 86.3952C244.813 86.0252 245.048 85.5352 245.158 84.9252C245.278 84.3152 245.338 83.5602 245.338 82.6602ZM248.397 87.1002C249.667 86.0802 250.662 85.2452 251.382 84.5952C252.102 83.9352 252.707 83.2502 253.197 82.5402C253.697 81.8202 253.947 81.1152 253.947 80.4252C253.947 79.7752 253.787 79.2652 253.467 78.8952C253.157 78.5152 252.652 78.3252 251.952 78.3252C251.272 78.3252 250.742 78.5402 250.362 78.9702C249.992 79.3902 249.792 79.9552 249.762 80.6652H248.442C248.482 79.5452 248.822 78.6802 249.462 78.0702C250.102 77.4602 250.927 77.1552 251.937 77.1552C252.967 77.1552 253.782 77.4402 254.382 78.0102C254.992 78.5802 255.297 79.3652 255.297 80.3652C255.297 81.1952 255.047 82.0052 254.547 82.7952C254.057 83.5752 253.497 84.2652 252.867 84.8652C252.237 85.4552 251.432 86.1452 250.452 86.9352H255.612V88.0752H248.397V87.1002ZM264.105 78.5352H258.84V81.9552C259.07 81.6352 259.41 81.3752 259.86 81.1752C260.31 80.9652 260.795 80.8602 261.315 80.8602C262.145 80.8602 262.82 81.0352 263.34 81.3852C263.86 81.7252 264.23 82.1702 264.45 82.7202C264.68 83.2602 264.795 83.8352 264.795 84.4452C264.795 85.1652 264.66 85.8102 264.39 86.3802C264.12 86.9502 263.705 87.4002 263.145 87.7302C262.595 88.0602 261.91 88.2252 261.09 88.2252C260.04 88.2252 259.19 87.9552 258.54 87.4152C257.89 86.8752 257.495 86.1552 257.355 85.2552H258.69C258.82 85.8252 259.095 86.2702 259.515 86.5902C259.935 86.9102 260.465 87.0702 261.105 87.0702C261.895 87.0702 262.49 86.8352 262.89 86.3652C263.29 85.8852 263.49 85.2552 263.49 84.4752C263.49 83.6952 263.29 83.0952 262.89 82.6752C262.49 82.2452 261.9 82.0302 261.12 82.0302C260.59 82.0302 260.125 82.1602 259.725 82.4202C259.335 82.6702 259.05 83.0152 258.87 83.4552H257.58V77.3352H264.105V78.5352ZM268.244 86.3052L266.564 90.3402H265.649L266.744 86.3052H268.244ZM273.221 78.5952V77.3502H276.041V88.1952H274.661V78.5952H273.221ZM278.056 85.7802V84.7452L283.321 77.4552H284.956V84.5952H286.456V85.7802H284.956V88.1952H283.606V85.7802H278.056ZM283.666 78.8802L279.631 84.5952H283.666V78.8802ZM288.48 88.2852C288.22 88.2852 288 88.1952 287.82 88.0152C287.64 87.8352 287.55 87.6152 287.55 87.3552C287.55 87.0952 287.64 86.8752 287.82 86.6952C288 86.5152 288.22 86.4252 288.48 86.4252C288.73 86.4252 288.94 86.5152 289.11 86.6952C289.29 86.8752 289.38 87.0952 289.38 87.3552C289.38 87.6152 289.29 87.8352 289.11 88.0152C288.94 88.1952 288.73 88.2852 288.48 88.2852ZM288.48 81.8652C288.22 81.8652 288 81.7752 287.82 81.5952C287.64 81.4152 287.55 81.1952 287.55 80.9352C287.55 80.6752 287.64 80.4552 287.82 80.2752C288 80.0952 288.22 80.0052 288.48 80.0052C288.73 80.0052 288.94 80.0952 289.11 80.2752C289.29 80.4552 289.38 80.6752 289.38 80.9352C289.38 81.1952 289.29 81.4152 289.11 81.5952C288.94 81.7752 288.73 81.8652 288.48 81.8652ZM290.683 85.7802V84.7452L295.948 77.4552H297.583V84.5952H299.083V85.7802H297.583V88.1952H296.233V85.7802H290.683ZM296.293 78.8802L292.258 84.5952H296.293V78.8802ZM307.362 78.5352H302.097V81.9552C302.327 81.6352 302.667 81.3752 303.117 81.1752C303.567 80.9652 304.052 80.8602 304.572 80.8602C305.402 80.8602 306.077 81.0352 306.597 81.3852C307.117 81.7252 307.487 82.1702 307.707 82.7202C307.937 83.2602 308.052 83.8352 308.052 84.4452C308.052 85.1652 307.917 85.8102 307.647 86.3802C307.377 86.9502 306.962 87.4002 306.402 87.7302C305.852 88.0602 305.167 88.2252 304.347 88.2252C303.297 88.2252 302.447 87.9552 301.797 87.4152C301.147 86.8752 300.752 86.1552 300.612 85.2552H301.947C302.077 85.8252 302.352 86.2702 302.772 86.5902C303.192 86.9102 303.722 87.0702 304.362 87.0702C305.152 87.0702 305.747 86.8352 306.147 86.3652C306.547 85.8852 306.747 85.2552 306.747 84.4752C306.747 83.6952 306.547 83.0952 306.147 82.6752C305.747 82.2452 305.157 82.0302 304.377 82.0302C303.847 82.0302 303.382 82.1602 302.982 82.4202C302.592 82.6702 302.307 83.0152 302.127 83.4552H300.837V77.3352H307.362V78.5352Z" fill="black"/>
</svg>
