<?xml version="1.0" standalone="no"?>
<!DOCTYPE svg PUBLIC "-//W3C//DTD SVG 20010904//EN"
 "http://www.w3.org/TR/2001/REC-SVG-20010904/DTD/svg10.dtd">
<svg version="1.0" xmlns="http://www.w3.org/2000/svg"
 width="1582.000000pt" height="1024.000000pt" viewBox="0 0 1582.000000 1024.000000"
 preserveAspectRatio="xMidYMid meet">

<g transform="translate(0.000000,1024.000000) scale(0.100000,-0.100000)"
fill="#000000" stroke="none">
<path d="M1710 9550 l0 -690 550 0 550 0 0 230 0 230 -320 0 -320 0 0 230 0
230 320 0 320 0 0 230 0 230 -550 0 -550 0 0 -690z"/>
<path d="M3030 9790 l0 -450 320 0 320 0 0 -40 0 -40 -320 0 -320 0 0 -210 0
-210 550 0 550 0 0 460 0 460 -320 0 -320 0 0 40 0 40 320 0 320 0 0 200 0
200 -550 0 -550 0 0 -450z"/>
<path d="M4350 9790 l0 -450 320 0 320 0 0 -40 0 -40 -320 0 -320 0 0 -210 0
-210 548 2 547 3 3 458 2 457 -320 0 -320 0 0 40 0 40 320 0 320 0 0 200 0
200 -550 0 -550 0 0 -450z"/>
<path d="M9240 9550 l0 -690 230 0 230 0 0 230 0 230 215 0 215 0 0 -230 0
-230 230 0 230 0 0 690 0 690 -230 0 -230 0 -2 -227 -3 -228 -210 0 -210 0 -3
228 -2 227 -230 0 -230 0 0 -690z"/>
<path d="M10790 10010 l0 -230 200 0 200 0 0 -460 0 -460 235 0 235 0 0 460 0
460 200 0 200 0 0 230 0 230 -635 0 -635 0 0 -230z"/>
<path d="M12260 9550 l0 -690 230 0 230 0 2 335 3 334 155 -239 c85 -131 157
-237 160 -235 3 2 75 111 160 244 l155 240 3 -340 2 -339 230 0 230 0 0 690 0
690 -242 0 -243 -1 -145 -238 c-79 -132 -148 -237 -151 -235 -4 2 -72 110
-150 239 l-144 235 -242 0 -243 0 0 -690z"/>
<path d="M14050 9550 l0 -690 555 0 555 0 -2 228 -3 227 -322 3 -323 2 0 460
0 460 -230 0 -230 0 0 -690z"/>
<path d="M5 8193 c3 -21 152 -1685 331 -3698 179 -2013 328 -3663 332 -3666 9
-8 2936 -819 2955 -819 13 0 2719 747 2900 801 37 11 67 22 67 25 0 12 650
7296 655 7342 l6 52 -3625 0 -3626 0 5 -37z m5895 -1477 c0 -2 -49 -556 -110
-1232 -60 -676 -153 -1715 -206 -2309 -53 -594 -99 -1083 -103 -1086 -3 -3
-422 -121 -931 -262 l-925 -255 -928 257 c-510 142 -929 260 -932 263 -7 7
-133 1411 -128 1421 2 4 209 7 459 7 356 0 454 -3 454 -12 0 -18 62 -713 64
-714 0 -1 227 -62 504 -137 l502 -135 503 135 c276 74 504 137 506 139 2 2 25
245 52 541 26 296 50 559 53 586 l5 47 -1574 0 c-1380 0 -1575 2 -1575 15 0
22 -69 793 -76 848 l-6 47 1654 0 1654 0 41 458 c23 251 40 458 39 459 -1 1
-781 5 -1733 9 l-1732 7 -6 51 c-9 78 -75 815 -75 837 0 19 34 19 2275 19
1251 0 2275 -2 2275 -4z"/>
<path d="M8575 8188 c3 -24 152 -1688 331 -3698 178 -2010 328 -3657 332
-3661 4 -3 670 -189 1480 -413 l1473 -409 1475 409 c812 225 1479 411 1483
414 8 5 670 7380 664 7393 -2 4 -1633 7 -3624 7 l-3620 0 6 -42z m5895 -1473
c0 -3 -18 -204 -40 -447 -22 -244 -40 -449 -40 -455 0 -10 -358 -13 -1738 -15
l-1737 -3 40 -455 40 -455 1657 -3 1657 -2 -4 -28 c-3 -15 -60 -641 -126
-1392 -67 -751 -124 -1368 -128 -1371 -3 -4 -422 -122 -931 -263 l-926 -256
-924 256 c-509 141 -929 260 -934 265 -6 5 -36 298 -67 651 -32 354 -60 673
-64 711 l-6 67 460 0 c432 0 461 -1 461 -17 0 -22 62 -708 64 -709 9 -6 995
-268 1006 -267 22 0 994 264 1002 272 6 5 108 1087 108 1148 l0 23 -1569 0
-1569 0 -6 48 c-11 84 -236 2630 -236 2666 l0 36 2275 0 c1251 0 2275 -2 2275
-5z"/>
</g>
</svg>
